<svg width="4621" height="124" viewBox="0 0 4621 124" fill="none" xmlns="http://www.w3.org/2000/svg">
<path d="M77.208 59.752L59.928 20.968L43.16 59.752H77.208ZM93.848 97L86.04 79.336H34.584L26.904 97H0.408L42.648 1.768H77.976L122.136 97H93.848ZM178.648 97H149.592L121.816 25.96H148.312L165.336 75.24L180.056 25.96H208.216L224.088 75.24L239.832 25.96H263.512L238.424 97H209.112L193.496 50.92L178.648 97ZM309.154 82.792C323.746 82.792 328.738 73.576 328.738 68.2V62.696C326.562 63.464 320.162 64.872 313.122 66.024C301.09 68.072 297.25 69.864 297.25 74.728V74.984C297.25 79.336 300.45 82.792 309.154 82.792ZM329.506 87.144C326.306 90.856 318.754 98.408 302.114 98.408H300.066C280.226 98.408 272.034 87.528 272.034 75.88V75.368C272.034 62.952 279.714 55.528 303.906 53.48L323.362 51.816C327.202 51.432 328.738 50.024 328.738 47.208C328.738 43.88 327.714 40.296 313.89 40.296C300.834 40.296 299.682 45.288 299.554 48.104H273.954V47.848C273.954 40.808 276.77 24.296 311.714 24.296H315.682C350.882 24.296 353.058 38.76 353.058 48.232V71.656C353.058 76.136 354.082 77.928 358.946 77.928H361.634V97H341.41C333.858 97 330.658 91.88 329.506 87.144ZM401.084 97H376.124V0.103996H401.084V54.376L426.428 25.96H455.228L425.532 57.832L458.428 97H428.732L401.084 64.104V97ZM506.837 40.68C493.781 40.68 489.301 45.928 487.765 53.352H525.397C525.269 48.104 522.837 40.68 506.837 40.68ZM551.893 74.856C551.893 80.616 547.285 98.664 510.549 98.664H505.813C470.741 98.664 462.037 79.464 462.037 62.44V60.648C462.037 44.52 469.973 24.424 503.637 24.424H509.269C545.621 24.424 552.149 44.648 552.149 64.488V66.792H487.509C488.661 74.984 493.653 81.64 509.013 81.64C523.477 81.64 525.397 76.136 525.909 74.856H551.893ZM569.499 97V25.96H594.203V37.224C597.147 33.384 606.875 24.296 623.003 24.296H624.283C645.019 24.296 654.491 38.376 654.491 50.92V97H629.531V60.008C629.531 51.816 624.795 43.88 612.507 43.88C600.603 43.88 594.459 52.2 594.459 60.904V97H569.499ZM700.715 0.103996V18.024H675.243V0.103996H700.715ZM700.459 25.96V97H675.499V25.96H700.459ZM721.749 97V25.96H746.453V37.224C749.397 33.384 759.125 24.296 775.253 24.296H776.533C797.269 24.296 806.741 38.376 806.741 50.92V97H781.781V60.008C781.781 51.816 777.045 43.88 764.757 43.88C752.853 43.88 746.709 52.2 746.709 60.904V97H721.749ZM869.349 42.984C853.733 42.984 850.021 51.944 850.021 59.24V59.624C850.021 66.664 854.245 75.88 869.349 75.88H870.885C885.605 75.88 890.213 66.92 890.213 59.752V59.24C890.213 51.816 884.965 42.984 870.757 42.984H869.349ZM868.965 123.368C832.101 123.368 828.261 108.264 828.261 100.072V99.56H854.757C855.653 101.736 857.445 105.064 870.373 105.064H871.781C885.605 105.064 890.085 98.536 890.085 90.088V84.84C887.525 87.656 880.101 94.568 862.821 94.568H861.029C832.997 94.568 824.293 75.624 824.293 60.392V58.216C824.293 42.216 833.893 24.552 860.645 24.552H862.053C879.205 24.552 886.885 30.568 889.957 33.256V25.96H914.789V89.064C914.789 107.88 904.805 123.368 873.317 123.368H868.965ZM1003.58 59.752L986.303 20.968L969.535 59.752H1003.58ZM1020.22 97L1012.42 79.336H960.959L953.279 97H926.783L969.023 1.768H1004.35L1048.51 97H1020.22ZM1105.02 97H1075.97L1048.19 25.96H1074.69L1091.71 75.24L1106.43 25.96H1134.59L1150.46 75.24L1166.21 25.96H1189.89L1164.8 97H1135.49L1119.87 50.92L1105.02 97ZM1235.53 82.792C1250.12 82.792 1255.11 73.576 1255.11 68.2V62.696C1252.94 63.464 1246.54 64.872 1239.5 66.024C1227.47 68.072 1223.62 69.864 1223.62 74.728V74.984C1223.62 79.336 1226.83 82.792 1235.53 82.792ZM1255.88 87.144C1252.68 90.856 1245.13 98.408 1228.49 98.408H1226.44C1206.6 98.408 1198.41 87.528 1198.41 75.88V75.368C1198.41 62.952 1206.09 55.528 1230.28 53.48L1249.74 51.816C1253.58 51.432 1255.11 50.024 1255.11 47.208C1255.11 43.88 1254.09 40.296 1240.27 40.296C1227.21 40.296 1226.06 45.288 1225.93 48.104H1200.33V47.848C1200.33 40.808 1203.15 24.296 1238.09 24.296H1242.06C1277.26 24.296 1279.43 38.76 1279.43 48.232V71.656C1279.43 76.136 1280.46 77.928 1285.32 77.928H1288.01V97H1267.79C1260.23 97 1257.03 91.88 1255.88 87.144ZM1327.46 97H1302.5V0.103996H1327.46V54.376L1352.8 25.96H1381.6L1351.91 57.832L1384.8 97H1355.11L1327.46 64.104V97ZM1433.21 40.68C1420.16 40.68 1415.68 45.928 1414.14 53.352H1451.77C1451.64 48.104 1449.21 40.68 1433.21 40.68ZM1478.27 74.856C1478.27 80.616 1473.66 98.664 1436.92 98.664H1432.19C1397.12 98.664 1388.41 79.464 1388.41 62.44V60.648C1388.41 44.52 1396.35 24.424 1430.01 24.424H1435.64C1472 24.424 1478.52 44.648 1478.52 64.488V66.792H1413.88C1415.04 74.984 1420.03 81.64 1435.39 81.64C1449.85 81.64 1451.77 76.136 1452.28 74.856H1478.27ZM1495.87 97V25.96H1520.58V37.224C1523.52 33.384 1533.25 24.296 1549.38 24.296H1550.66C1571.39 24.296 1580.87 38.376 1580.87 50.92V97H1555.91V60.008C1555.91 51.816 1551.17 43.88 1538.88 43.88C1526.98 43.88 1520.83 52.2 1520.83 60.904V97H1495.87ZM1627.09 0.103996V18.024H1601.62V0.103996H1627.09ZM1626.83 25.96V97H1601.87V25.96H1626.83ZM1648.12 97V25.96H1672.83V37.224C1675.77 33.384 1685.5 24.296 1701.63 24.296H1702.91C1723.64 24.296 1733.12 38.376 1733.12 50.92V97H1708.16V60.008C1708.16 51.816 1703.42 43.88 1691.13 43.88C1679.23 43.88 1673.08 52.2 1673.08 60.904V97H1648.12ZM1795.72 42.984C1780.11 42.984 1776.4 51.944 1776.4 59.24V59.624C1776.4 66.664 1780.62 75.88 1795.72 75.88H1797.26C1811.98 75.88 1816.59 66.92 1816.59 59.752V59.24C1816.59 51.816 1811.34 42.984 1797.13 42.984H1795.72ZM1795.34 123.368C1758.48 123.368 1754.64 108.264 1754.64 100.072V99.56H1781.13C1782.03 101.736 1783.82 105.064 1796.75 105.064H1798.16C1811.98 105.064 1816.46 98.536 1816.46 90.088V84.84C1813.9 87.656 1806.48 94.568 1789.2 94.568H1787.4C1759.37 94.568 1750.67 75.624 1750.67 60.392V58.216C1750.67 42.216 1760.27 24.552 1787.02 24.552H1788.43C1805.58 24.552 1813.26 30.568 1816.33 33.256V25.96H1841.16V89.064C1841.16 107.88 1831.18 123.368 1799.69 123.368H1795.34ZM1929.96 59.752L1912.68 20.968L1895.91 59.752H1929.96ZM1946.6 97L1938.79 79.336H1887.33L1879.65 97H1853.16L1895.4 1.768H1930.73L1974.89 97H1946.6ZM2031.4 97H2002.34L1974.57 25.96H2001.06L2018.09 75.24L2032.81 25.96H2060.97L2076.84 75.24L2092.58 25.96H2116.26L2091.17 97H2061.86L2046.25 50.92L2031.4 97ZM2161.9 82.792C2176.5 82.792 2181.49 73.576 2181.49 68.2V62.696C2179.31 63.464 2172.91 64.872 2165.87 66.024C2153.84 68.072 2150 69.864 2150 74.728V74.984C2150 79.336 2153.2 82.792 2161.9 82.792ZM2182.26 87.144C2179.06 90.856 2171.5 98.408 2154.86 98.408H2152.82C2132.98 98.408 2124.78 87.528 2124.78 75.88V75.368C2124.78 62.952 2132.46 55.528 2156.66 53.48L2176.11 51.816C2179.95 51.432 2181.49 50.024 2181.49 47.208C2181.49 43.88 2180.46 40.296 2166.64 40.296C2153.58 40.296 2152.43 45.288 2152.3 48.104H2126.7V47.848C2126.7 40.808 2129.52 24.296 2164.46 24.296H2168.43C2203.63 24.296 2205.81 38.76 2205.81 48.232V71.656C2205.81 76.136 2206.83 77.928 2211.7 77.928H2214.38V97H2194.16C2186.61 97 2183.41 91.88 2182.26 87.144ZM2253.83 97H2228.87V0.103996H2253.83V54.376L2279.18 25.96H2307.98L2278.28 57.832L2311.18 97H2281.48L2253.83 64.104V97ZM2359.59 40.68C2346.53 40.68 2342.05 45.928 2340.52 53.352H2378.15C2378.02 48.104 2375.59 40.68 2359.59 40.68ZM2404.64 74.856C2404.64 80.616 2400.04 98.664 2363.3 98.664H2358.56C2323.49 98.664 2314.79 79.464 2314.79 62.44V60.648C2314.79 44.52 2322.72 24.424 2356.39 24.424H2362.02C2398.37 24.424 2404.9 44.648 2404.9 64.488V66.792H2340.26C2341.41 74.984 2346.4 81.64 2361.76 81.64C2376.23 81.64 2378.15 76.136 2378.66 74.856H2404.64ZM2422.25 97V25.96H2446.95V37.224C2449.9 33.384 2459.63 24.296 2475.75 24.296H2477.03C2497.77 24.296 2507.24 38.376 2507.24 50.92V97H2482.28V60.008C2482.28 51.816 2477.55 43.88 2465.26 43.88C2453.35 43.88 2447.21 52.2 2447.21 60.904V97H2422.25ZM2553.47 0.103996V18.024H2527.99V0.103996H2553.47ZM2553.21 25.96V97H2528.25V25.96H2553.21ZM2574.5 97V25.96H2599.2V37.224C2602.15 33.384 2611.88 24.296 2628 24.296H2629.28C2650.02 24.296 2659.49 38.376 2659.49 50.92V97H2634.53V60.008C2634.53 51.816 2629.8 43.88 2617.51 43.88C2605.6 43.88 2599.46 52.2 2599.46 60.904V97H2574.5ZM2722.1 42.984C2706.48 42.984 2702.77 51.944 2702.77 59.24V59.624C2702.77 66.664 2707 75.88 2722.1 75.88H2723.64C2738.36 75.88 2742.96 66.92 2742.96 59.752V59.24C2742.96 51.816 2737.72 42.984 2723.51 42.984H2722.1ZM2721.72 123.368C2684.85 123.368 2681.01 108.264 2681.01 100.072V99.56H2707.51C2708.4 101.736 2710.2 105.064 2723.12 105.064H2724.53C2738.36 105.064 2742.84 98.536 2742.84 90.088V84.84C2740.28 87.656 2732.85 94.568 2715.57 94.568H2713.78C2685.75 94.568 2677.04 75.624 2677.04 60.392V58.216C2677.04 42.216 2686.64 24.552 2713.4 24.552H2714.8C2731.96 24.552 2739.64 30.568 2742.71 33.256V25.96H2767.54V89.064C2767.54 107.88 2757.56 123.368 2726.07 123.368H2721.72ZM2856.33 59.752L2839.05 20.968L2822.29 59.752H2856.33ZM2872.97 97L2865.17 79.336H2813.71L2806.03 97H2779.53L2821.77 1.768H2857.1L2901.26 97H2872.97ZM2957.77 97H2928.72L2900.94 25.96H2927.44L2944.46 75.24L2959.18 25.96H2987.34L3003.21 75.24L3018.96 25.96H3042.64L3017.55 97H2988.24L2972.62 50.92L2957.77 97ZM3088.28 82.792C3102.87 82.792 3107.86 73.576 3107.86 68.2V62.696C3105.69 63.464 3099.29 64.872 3092.25 66.024C3080.22 68.072 3076.38 69.864 3076.38 74.728V74.984C3076.38 79.336 3079.58 82.792 3088.28 82.792ZM3108.63 87.144C3105.43 90.856 3097.88 98.408 3081.24 98.408H3079.19C3059.35 98.408 3051.16 87.528 3051.16 75.88V75.368C3051.16 62.952 3058.84 55.528 3083.03 53.48L3102.49 51.816C3106.33 51.432 3107.86 50.024 3107.86 47.208C3107.86 43.88 3106.84 40.296 3093.02 40.296C3079.96 40.296 3078.81 45.288 3078.68 48.104H3053.08V47.848C3053.08 40.808 3055.9 24.296 3090.84 24.296H3094.81C3130.01 24.296 3132.18 38.76 3132.18 48.232V71.656C3132.18 76.136 3133.21 77.928 3138.07 77.928H3140.76V97H3120.54C3112.98 97 3109.78 91.88 3108.63 87.144ZM3180.21 97H3155.25V0.103996H3180.21V54.376L3205.55 25.96H3234.35L3204.66 57.832L3237.55 97H3207.86L3180.21 64.104V97ZM3285.96 40.68C3272.91 40.68 3268.43 45.928 3266.89 53.352H3304.52C3304.39 48.104 3301.96 40.68 3285.96 40.68ZM3331.02 74.856C3331.02 80.616 3326.41 98.664 3289.67 98.664H3284.94C3249.87 98.664 3241.16 79.464 3241.16 62.44V60.648C3241.16 44.52 3249.1 24.424 3282.76 24.424H3288.39C3324.75 24.424 3331.27 44.648 3331.27 64.488V66.792H3266.63C3267.79 74.984 3272.78 81.64 3288.14 81.64C3302.6 81.64 3304.52 76.136 3305.03 74.856H3331.02ZM3348.62 97V25.96H3373.33V37.224C3376.27 33.384 3386 24.296 3402.13 24.296H3403.41C3424.14 24.296 3433.62 38.376 3433.62 50.92V97H3408.66V60.008C3408.66 51.816 3403.92 43.88 3391.63 43.88C3379.73 43.88 3373.58 52.2 3373.58 60.904V97H3348.62ZM3479.84 0.103996V18.024H3454.37V0.103996H3479.84ZM3479.58 25.96V97H3454.62V25.96H3479.58ZM3500.87 97V25.96H3525.58V37.224C3528.52 33.384 3538.25 24.296 3554.38 24.296H3555.66C3576.39 24.296 3585.87 38.376 3585.87 50.92V97H3560.91V60.008C3560.91 51.816 3556.17 43.88 3543.88 43.88C3531.98 43.88 3525.83 52.2 3525.83 60.904V97H3500.87ZM3648.47 42.984C3632.86 42.984 3629.15 51.944 3629.15 59.24V59.624C3629.15 66.664 3633.37 75.88 3648.47 75.88H3650.01C3664.73 75.88 3669.34 66.92 3669.34 59.752V59.24C3669.34 51.816 3664.09 42.984 3649.88 42.984H3648.47ZM3648.09 123.368C3611.23 123.368 3607.39 108.264 3607.39 100.072V99.56H3633.88C3634.78 101.736 3636.57 105.064 3649.5 105.064H3650.91C3664.73 105.064 3669.21 98.536 3669.21 90.088V84.84C3666.65 87.656 3659.23 94.568 3641.95 94.568H3640.15C3612.12 94.568 3603.42 75.624 3603.42 60.392V58.216C3603.42 42.216 3613.02 24.552 3639.77 24.552H3641.18C3658.33 24.552 3666.01 30.568 3669.08 33.256V25.96H3693.91V89.064C3693.91 107.88 3683.93 123.368 3652.44 123.368H3648.09ZM3782.71 59.752L3765.43 20.968L3748.66 59.752H3782.71ZM3799.35 97L3791.54 79.336H3740.08L3732.4 97H3705.91L3748.15 1.768H3783.48L3827.64 97H3799.35ZM3884.15 97H3855.09L3827.32 25.96H3853.81L3870.84 75.24L3885.56 25.96H3913.72L3929.59 75.24L3945.33 25.96H3969.01L3943.92 97H3914.61L3899 50.92L3884.15 97ZM4014.65 82.792C4029.25 82.792 4034.24 73.576 4034.24 68.2V62.696C4032.06 63.464 4025.66 64.872 4018.62 66.024C4006.59 68.072 4002.75 69.864 4002.75 74.728V74.984C4002.75 79.336 4005.95 82.792 4014.65 82.792ZM4035.01 87.144C4031.81 90.856 4024.25 98.408 4007.61 98.408H4005.57C3985.73 98.408 3977.53 87.528 3977.53 75.88V75.368C3977.53 62.952 3985.21 55.528 4009.41 53.48L4028.86 51.816C4032.7 51.432 4034.24 50.024 4034.24 47.208C4034.24 43.88 4033.21 40.296 4019.39 40.296C4006.33 40.296 4005.18 45.288 4005.05 48.104H3979.45V47.848C3979.45 40.808 3982.27 24.296 4017.21 24.296H4021.18C4056.38 24.296 4058.56 38.76 4058.56 48.232V71.656C4058.56 76.136 4059.58 77.928 4064.45 77.928H4067.13V97H4046.91C4039.36 97 4036.16 91.88 4035.01 87.144ZM4106.58 97H4081.62V0.103996H4106.58V54.376L4131.93 25.96H4160.73L4131.03 57.832L4163.93 97H4134.23L4106.58 64.104V97ZM4212.34 40.68C4199.28 40.68 4194.8 45.928 4193.27 53.352H4230.9C4230.77 48.104 4228.34 40.68 4212.34 40.68ZM4257.39 74.856C4257.39 80.616 4252.79 98.664 4216.05 98.664H4211.31C4176.24 98.664 4167.54 79.464 4167.54 62.44V60.648C4167.54 44.52 4175.47 24.424 4209.14 24.424H4214.77C4251.12 24.424 4257.65 44.648 4257.65 64.488V66.792H4193.01C4194.16 74.984 4199.15 81.64 4214.51 81.64C4228.98 81.64 4230.9 76.136 4231.41 74.856H4257.39ZM4275 97V25.96H4299.7V37.224C4302.65 33.384 4312.38 24.296 4328.5 24.296H4329.78C4350.52 24.296 4359.99 38.376 4359.99 50.92V97H4335.03V60.008C4335.03 51.816 4330.3 43.88 4318.01 43.88C4306.1 43.88 4299.96 52.2 4299.96 60.904V97H4275ZM4406.22 0.103996V18.024H4380.74V0.103996H4406.22ZM4405.96 25.96V97H4381V25.96H4405.96ZM4427.25 97V25.96H4451.95V37.224C4454.9 33.384 4464.63 24.296 4480.75 24.296H4482.03C4502.77 24.296 4512.24 38.376 4512.24 50.92V97H4487.28V60.008C4487.28 51.816 4482.55 43.88 4470.26 43.88C4458.35 43.88 4452.21 52.2 4452.21 60.904V97H4427.25ZM4574.85 42.984C4559.23 42.984 4555.52 51.944 4555.52 59.24V59.624C4555.52 66.664 4559.75 75.88 4574.85 75.88H4576.39C4591.11 75.88 4595.71 66.92 4595.71 59.752V59.24C4595.71 51.816 4590.47 42.984 4576.26 42.984H4574.85ZM4574.47 123.368C4537.6 123.368 4533.76 108.264 4533.76 100.072V99.56H4560.26C4561.15 101.736 4562.95 105.064 4575.87 105.064H4577.28C4591.11 105.064 4595.59 98.536 4595.59 90.088V84.84C4593.03 87.656 4585.6 94.568 4568.32 94.568H4566.53C4538.5 94.568 4529.79 75.624 4529.79 60.392V58.216C4529.79 42.216 4539.39 24.552 4566.15 24.552H4567.55C4584.71 24.552 4592.39 30.568 4595.46 33.256V25.96H4620.29V89.064C4620.29 107.88 4610.31 123.368 4578.82 123.368H4574.47Z" fill="#FFD600"/>
</svg>
