<svg width="718" height="391" viewBox="0 0 718 391" fill="none" xmlns="http://www.w3.org/2000/svg">
<rect x="625.855" y="320" width="18.0083" height="69.2626" transform="rotate(21.9189 625.855 320)" fill="#E40000"/>
<rect width="18.0083" height="69.2626" transform="matrix(0.927713 -0.373293 -0.373293 -0.927713 625.855 101.144)" fill="#E40000"/>
<rect x="502.855" y="299" width="18.0083" height="69.2626" transform="rotate(21.9189 502.855 299)" fill="#E40000"/>
<rect width="18.0083" height="69.2626" transform="matrix(0.927713 -0.373293 -0.373293 -0.927713 502.855 71.144)" fill="#E40000"/>
<rect x="344.257" y="176.134" width="18.0083" height="69.2626" transform="rotate(99.2507 344.257 176.134)" fill="#E40000"/>
<rect x="71.2568" y="80.1343" width="18.0083" height="69.2626" transform="rotate(99.2507 71.2568 80.1343)" fill="#E40000"/>
<rect width="18.0083" height="69.2626" transform="matrix(0.562875 -0.826542 -0.826542 -0.562875 452.845 208.949)" fill="#E40000"/>
<rect x="313" y="248.567" width="16.9241" height="65.0928" transform="rotate(-43.1167 313 248.567)" fill="#FFD600"/>
<rect width="16.9241" height="65.0928" transform="matrix(0.729963 0.683486 0.683486 -0.729963 261 75.5151)" fill="#FFD600"/>
<rect x="526" y="218.732" width="16.9241" height="65.0928" transform="rotate(-12.7393 526 218.732)" fill="#FFD600"/>
<rect width="16.9241" height="65.0928" transform="matrix(0.975383 0.220516 0.220516 -0.975383 526 140.412)" fill="#FFD600"/>
<rect x="687" y="261.732" width="16.9241" height="65.0928" transform="rotate(-12.7393 687 261.732)" fill="#FFD600"/>
<rect width="16.9241" height="65.0928" transform="matrix(0.975383 0.220516 0.220516 -0.975383 686 114.412)" fill="#FFD600"/>
<rect x="133" y="211.907" width="16.9241" height="65.0928" transform="rotate(-87.4381 133 211.907)" fill="#FFD600"/>
<rect width="16.9241" height="65.0928" transform="matrix(-0.412592 0.910916 0.910916 0.412592 146.982 109)" fill="#FFD600"/>
<rect x="236" y="227.202" width="20.7258" height="79.7148" transform="rotate(-36.0683 236 227.202)" fill="#FF9900"/>
<rect width="20.7258" height="79.7148" transform="matrix(0.703333 0.710861 0.710861 -0.703333 151 61.0659)" fill="#FF9900"/>
<rect x="689.175" y="230.071" width="20.7258" height="79.7148" transform="rotate(102.568 689.175 230.071)" fill="#FF9900"/>
<rect width="20.7258" height="79.7148" transform="matrix(0.548075 -0.836429 -0.836429 -0.548075 676.676 180.144)" fill="#FF9900"/>
<rect x="347" y="358.603" width="20.7258" height="79.7148" transform="rotate(-71.0542 347 358.603)" fill="#FF9900"/>
<rect width="20.7258" height="79.7148" transform="matrix(-0.595865 0.803084 0.803084 0.595865 370.35 48)" fill="#FF9900"/>
</svg>
