<svg width="1169" height="428" viewBox="0 0 1169 428" fill="none" xmlns="http://www.w3.org/2000/svg">
<rect width="18.0083" height="69.2626" transform="matrix(-0.927713 0.373293 0.373293 0.927713 91.9951 356.834)" fill="#E40000"/>
<rect x="456.85" y="112.349" width="16.9241" height="65.0928" transform="rotate(136.883 456.85 112.349)" fill="#FFD600"/>
<rect x="31.8516" y="151.246" width="16.9241" height="65.0928" transform="rotate(167.261 31.8516 151.246)" fill="#FFD600"/>
<rect width="18.0083" height="69.2626" transform="matrix(-0.927713 0.373293 0.373293 0.927713 676.006 315)" fill="#E40000"/>
<rect x="676.006" y="96.144" width="18.0083" height="69.2626" transform="rotate(-158.081 676.006 96.144)" fill="#E40000"/>
<rect x="775.861" y="135.412" width="16.9241" height="65.0928" transform="rotate(167.261 775.861 135.412)" fill="#FFD600"/>
<rect width="16.9241" height="65.0928" transform="matrix(-0.0446988 -0.999 -0.999 0.0446988 1168.86 206.907)" fill="#FFD600"/>
<rect x="1150.86" y="56.0659" width="20.7258" height="79.7148" transform="rotate(134.695 1150.86 56.0659)" fill="#FF9900"/>
<rect width="20.7258" height="79.7148" transform="matrix(-0.324673 -0.945826 -0.945826 0.324673 954.861 353.603)" fill="#FF9900"/>
</svg>
