<svg width="718" height="391" viewBox="0 0 718 391" fill="none" xmlns="http://www.w3.org/2000/svg">
<rect width="18.0083" height="69.2626" transform="matrix(-0.927713 0.373293 0.373293 0.927713 92.0059 319.834)" fill="#E40000"/>
<rect x="92.0059" y="100.978" width="18.0083" height="69.2626" transform="rotate(-158.081 92.0059 100.978)" fill="#E40000"/>
<rect width="18.0083" height="69.2626" transform="matrix(-0.927713 0.373293 0.373293 0.927713 215.006 298.834)" fill="#E40000"/>
<rect x="215.006" y="70.978" width="18.0083" height="69.2626" transform="rotate(-158.081 215.006 70.978)" fill="#E40000"/>
<rect width="18.0083" height="69.2626" transform="matrix(0.160754 0.986995 0.986995 -0.160754 373.604 175.968)" fill="#E40000"/>
<rect width="18.0083" height="69.2626" transform="matrix(0.160754 0.986995 0.986995 -0.160754 646.605 79.9683)" fill="#E40000"/>
<rect x="265.017" y="208.783" width="18.0083" height="69.2626" transform="rotate(-124.255 265.017 208.783)" fill="#E40000"/>
<rect width="16.9241" height="65.0928" transform="matrix(-0.729963 -0.683486 -0.683486 0.729963 404.861 248.401)" fill="#FFD600"/>
<rect x="456.861" y="75.3491" width="16.9241" height="65.0928" transform="rotate(136.883 456.861 75.3491)" fill="#FFD600"/>
<rect width="16.9241" height="65.0928" transform="matrix(-0.975383 -0.220516 -0.220516 0.975383 191.861 218.566)" fill="#FFD600"/>
<rect x="191.861" y="140.246" width="16.9241" height="65.0928" transform="rotate(167.261 191.861 140.246)" fill="#FFD600"/>
<rect width="16.9241" height="65.0928" transform="matrix(-0.975383 -0.220516 -0.220516 0.975383 30.8613 261.566)" fill="#FFD600"/>
<rect x="31.8613" y="114.246" width="16.9241" height="65.0928" transform="rotate(167.261 31.8613 114.246)" fill="#FFD600"/>
<rect width="16.9241" height="65.0928" transform="matrix(-0.0446988 -0.999 -0.999 0.0446988 584.861 211.741)" fill="#FFD600"/>
<rect x="570.879" y="108.834" width="16.9241" height="65.0928" transform="rotate(65.6322 570.879 108.834)" fill="#FFD600"/>
<rect width="20.7258" height="79.7148" transform="matrix(-0.808315 -0.58875 -0.58875 0.808315 481.861 227.036)" fill="#FF9900"/>
<rect x="566.861" y="60.8999" width="20.7258" height="79.7148" transform="rotate(134.695 566.861 60.8999)" fill="#FF9900"/>
<rect width="20.7258" height="79.7148" transform="matrix(0.2176 0.976038 0.976038 -0.2176 28.6865 229.905)" fill="#FF9900"/>
<rect x="41.1855" y="179.978" width="20.7258" height="79.7148" transform="rotate(-123.235 41.1855 179.978)" fill="#FF9900"/>
<rect width="20.7258" height="79.7148" transform="matrix(-0.324673 -0.945826 -0.945826 0.324673 370.861 358.437)" fill="#FF9900"/>
<rect x="347.512" y="47.834" width="20.7258" height="79.7148" transform="rotate(53.4256 347.512 47.834)" fill="#FF9900"/>
</svg>
