<svg width="1490" height="218" viewBox="0 0 1490 218" fill="none" xmlns="http://www.w3.org/2000/svg">
<path d="M107.406 216.574H97.578C24.102 216.574 12.168 175.156 12.168 156.904V154.798H63.648C64.584 159.712 66.456 177.73 103.662 177.73C140.868 177.73 145.782 165.796 145.782 156.904C145.782 147.778 140.166 141.694 122.382 141.694H66.69V106.36H122.148C139.23 106.36 143.442 99.574 143.442 92.32C143.442 84.13 139.464 75.238 103.194 75.238C66.69 75.238 65.52 89.044 64.584 93.256H14.508V90.682C14.508 76.174 22.932 37.798 94.302 37.798H107.406C178.074 37.798 191.412 62.836 191.412 82.492V84.13C191.412 102.616 178.776 112.21 165.438 116.422C180.414 120.4 196.794 132.334 196.794 156.202V157.84C196.794 184.048 181.116 216.574 107.406 216.574ZM260.599 101.446H219.181V66.112C254.281 66.112 265.045 60.964 272.533 39.904H308.569V214H260.599V101.446ZM400.857 168.604V214H346.335V168.604H400.857ZM444.326 101.446H402.908V66.112C438.008 66.112 448.772 60.964 456.26 39.904H492.296V214H444.326V101.446ZM710.007 214H529.125V188.728C529.125 163.924 532.401 141.226 597.921 120.4L625.767 111.976C648.933 105.19 655.017 100.51 655.017 91.852C655.017 82.492 648.699 75.004 620.151 75.004C586.221 75.004 582.945 94.192 582.477 102.616H532.167V100.978C532.167 77.344 544.101 37.798 614.067 37.798H624.597C686.841 37.798 706.029 61.9 706.029 91.618V93.49C706.029 123.676 689.181 136.546 640.743 147.544C631.383 149.65 621.087 151.99 612.897 154.096C578.499 162.52 572.415 168.838 572.415 172.348H710.007V214Z" fill="#2D1400"/>
<path d="M778.65 101.446H737.232V66.112C772.332 66.112 783.096 60.964 790.584 39.904H826.62V214H778.65V101.446ZM956.347 216.574H946.519C873.043 216.574 861.109 175.156 861.109 156.904V154.798H912.589C913.525 159.712 915.397 177.73 952.603 177.73C989.809 177.73 994.723 165.796 994.723 156.904C994.723 147.778 989.107 141.694 971.323 141.694H915.631V106.36H971.089C988.171 106.36 992.383 99.574 992.383 92.32C992.383 84.13 988.405 75.238 952.135 75.238C915.631 75.238 914.461 89.044 913.525 93.256H863.449V90.682C863.449 76.174 871.873 37.798 943.243 37.798H956.347C1027.02 37.798 1040.35 62.836 1040.35 82.492V84.13C1040.35 102.616 1027.72 112.21 1014.38 116.422C1029.36 120.4 1045.74 132.334 1045.74 156.202V157.84C1045.74 184.048 1030.06 216.574 956.347 216.574ZM1076.02 201.364C1076.02 195.592 1077.43 191.536 1080.24 189.196C1083.04 186.856 1086.4 185.686 1090.3 185.686C1094.35 185.686 1097.79 186.856 1100.59 189.196C1103.56 191.536 1105.04 195.592 1105.04 201.364C1105.04 206.98 1103.56 211.036 1100.59 213.532C1097.79 216.028 1094.35 217.276 1090.3 217.276C1086.4 217.276 1083.04 216.028 1080.24 213.532C1077.43 211.036 1076.02 206.98 1076.02 201.364ZM1076.02 101.212C1076.02 95.284 1077.43 91.15 1080.24 88.81C1083.04 86.47 1086.4 85.3 1090.3 85.3C1094.35 85.3 1097.79 86.47 1100.59 88.81C1103.56 91.15 1105.04 95.284 1105.04 101.212C1105.04 106.828 1103.56 110.884 1100.59 113.38C1097.79 115.876 1094.35 117.124 1090.3 117.124C1086.4 117.124 1083.04 115.876 1080.24 113.38C1077.43 110.884 1076.02 106.828 1076.02 101.212ZM1317.18 214H1136.3V188.728C1136.3 163.924 1139.57 141.226 1205.09 120.4L1232.94 111.976C1256.11 105.19 1262.19 100.51 1262.19 91.852C1262.19 82.492 1255.87 75.004 1227.32 75.004C1193.39 75.004 1190.12 94.192 1189.65 102.616H1139.34V100.978C1139.34 77.344 1151.27 37.798 1221.24 37.798H1231.77C1294.01 37.798 1313.2 61.9 1313.2 91.618V93.49C1313.2 123.676 1296.35 136.546 1247.92 147.544C1238.56 149.65 1228.26 151.99 1220.07 154.096C1185.67 162.52 1179.59 168.838 1179.59 172.348H1317.18V214ZM1382.62 101.446H1341.2V66.112C1376.3 66.112 1387.06 60.964 1394.55 39.904H1430.59V214H1382.62V101.446Z" fill="#2D1400"/>
</svg>
