<svg width="698" height="180" viewBox="0 0 698 180" fill="none" xmlns="http://www.w3.org/2000/svg">
<path d="M95.406 179.574H85.578C12.102 179.574 0.168 138.156 0.168 119.904V117.798H51.648C52.584 122.712 54.456 140.73 91.662 140.73C128.868 140.73 133.782 128.796 133.782 119.904C133.782 110.778 128.166 104.694 110.382 104.694H54.69V69.36H110.148C127.23 69.36 131.442 62.574 131.442 55.32C131.442 47.13 127.464 38.238 91.194 38.238C54.69 38.238 53.52 52.044 52.584 56.256H2.508V53.682C2.508 39.174 10.932 0.797995 82.302 0.797995H95.406C166.074 0.797995 179.412 25.836 179.412 45.492V47.13C179.412 65.616 166.776 75.21 153.438 79.422C168.414 83.4 184.794 95.334 184.794 119.202V120.84C184.794 147.048 169.116 179.574 95.406 179.574ZM248.599 64.446H207.181V29.112C242.281 29.112 253.045 23.964 260.533 2.904H296.569V177H248.599V64.446ZM388.857 131.604V177H334.335V131.604H388.857ZM432.326 64.446H390.908V29.112C426.008 29.112 436.772 23.964 444.26 2.904H480.296V177H432.326V64.446ZM698.007 177H517.125V151.728C517.125 126.924 520.401 104.226 585.921 83.4L613.767 74.976C636.933 68.19 643.017 63.51 643.017 54.852C643.017 45.492 636.699 38.004 608.151 38.004C574.221 38.004 570.945 57.192 570.477 65.616H520.167V63.978C520.167 40.344 532.101 0.797995 602.067 0.797995H612.597C674.841 0.797995 694.029 24.9 694.029 54.618V56.49C694.029 86.676 677.181 99.546 628.743 110.544C619.383 112.65 609.087 114.99 600.897 117.096C566.499 125.52 560.415 131.838 560.415 135.348H698.007V177Z" fill="#2D1400"/>
</svg>
