<svg width="136" height="1277" viewBox="0 0 136 1277" fill="none" xmlns="http://www.w3.org/2000/svg">
<path d="M136 130.56C136 168.115 105.555 198.56 68 198.56C30.4446 198.56 0 168.115 0 130.56C0 77.5199 40.8 23.12 68 0C97.92 24.48 136 78.1999 136 130.56Z" fill="#FFD600"/>
<path d="M136 346.119C136 383.675 105.555 414.119 68 414.119C30.4446 414.119 0 383.675 0 346.119C0 293.079 40.8 238.68 68 215.56C97.92 240.04 136 293.759 136 346.119Z" fill="#FFB800"/>
<path d="M136 561.679C136 599.234 105.555 629.679 68 629.679C30.4446 629.679 0 599.234 0 561.679C0 508.639 40.8 454.239 68 431.119C97.92 455.599 136 509.319 136 561.679Z" fill="#E40000"/>
<path d="M136 777.239C136 814.794 105.555 845.238 68 845.238C30.4446 845.238 0 814.794 0 777.239C0 724.199 40.8 669.799 68 646.679C97.92 671.159 136 724.879 136 777.239Z" fill="#FF7A00"/>
<path d="M136 992.798C136 1030.35 105.555 1060.8 68 1060.8C30.4446 1060.8 0 1030.35 0 992.798C0 939.758 40.8 885.358 68 862.238C97.92 886.718 136 940.438 136 992.798Z" fill="#FF9900"/>
<path d="M136 1208.56C136 1246.12 105.555 1276.56 68 1276.56C30.4446 1276.56 0 1246.12 0 1208.56C0 1155.52 40.8 1101.12 68 1078C97.92 1102.48 136 1156.2 136 1208.56Z" fill="#EA4701"/>
</svg>
