<svg width="136" height="5159" viewBox="0 0 136 5159" fill="none" xmlns="http://www.w3.org/2000/svg">
<path d="M136 1424.56C136 1462.12 105.555 1492.56 68 1492.56C30.4446 1492.56 0 1462.12 0 1424.56C0 1371.52 40.8 1317.12 68 1294C97.92 1318.48 136 1372.2 136 1424.56Z" fill="#FFD600"/>
<path d="M136 2718.56C136 2756.12 105.555 2786.56 68 2786.56C30.4446 2786.56 0 2756.12 0 2718.56C0 2665.52 40.8 2611.12 68 2588C97.92 2612.48 136 2666.2 136 2718.56Z" fill="#FFD600"/>
<path d="M136 4012.56C136 4050.12 105.555 4080.56 68 4080.56C30.4446 4080.56 0 4050.12 0 4012.56C0 3959.52 40.8 3905.12 68 3882C97.92 3906.48 136 3960.2 136 4012.56Z" fill="#FFD600"/>
<path d="M136 130.56C136 168.115 105.555 198.56 68 198.56C30.4446 198.56 0 168.115 0 130.56C0 77.5199 40.8 23.12 68 0C97.92 24.48 136 78.1999 136 130.56Z" fill="#FFD600"/>
<path d="M136 1640.12C136 1677.67 105.555 1708.12 68 1708.12C30.4446 1708.12 0 1677.67 0 1640.12C0 1587.08 40.8 1532.68 68 1509.56C97.92 1534.04 136 1587.76 136 1640.12Z" fill="#FFB800"/>
<path d="M136 2934.12C136 2971.67 105.555 3002.12 68 3002.12C30.4446 3002.12 0 2971.67 0 2934.12C0 2881.08 40.8 2826.68 68 2803.56C97.92 2828.04 136 2881.76 136 2934.12Z" fill="#FFB800"/>
<path d="M136 4228.12C136 4265.67 105.555 4296.12 68 4296.12C30.4446 4296.12 0 4265.67 0 4228.12C0 4175.08 40.8 4120.68 68 4097.56C97.92 4122.04 136 4175.76 136 4228.12Z" fill="#FFB800"/>
<path d="M136 346.119C136 383.675 105.555 414.119 68 414.119C30.4446 414.119 0 383.675 0 346.119C0 293.079 40.8 238.68 68 215.56C97.92 240.04 136 293.759 136 346.119Z" fill="#FFB800"/>
<path d="M136 1855.68C136 1893.23 105.555 1923.68 68 1923.68C30.4446 1923.68 0 1893.23 0 1855.68C0 1802.64 40.8 1748.24 68 1725.12C97.92 1749.6 136 1803.32 136 1855.68Z" fill="#E40000"/>
<path d="M136 3149.68C136 3187.23 105.555 3217.68 68 3217.68C30.4446 3217.68 0 3187.23 0 3149.68C0 3096.64 40.8 3042.24 68 3019.12C97.92 3043.6 136 3097.32 136 3149.68Z" fill="#E40000"/>
<path d="M136 4443.68C136 4481.23 105.555 4511.68 68 4511.68C30.4446 4511.68 0 4481.23 0 4443.68C0 4390.64 40.8 4336.24 68 4313.12C97.92 4337.6 136 4391.32 136 4443.68Z" fill="#E40000"/>
<path d="M136 561.679C136 599.234 105.555 629.679 68 629.679C30.4446 629.679 0 599.234 0 561.679C0 508.639 40.8 454.239 68 431.119C97.92 455.599 136 509.319 136 561.679Z" fill="#E40000"/>
<path d="M136 2071.24C136 2108.79 105.555 2139.24 68 2139.24C30.4446 2139.24 0 2108.79 0 2071.24C0 2018.2 40.8 1963.8 68 1940.68C97.92 1965.16 136 2018.88 136 2071.24Z" fill="#FF7A00"/>
<path d="M136 3365.24C136 3402.79 105.555 3433.24 68 3433.24C30.4446 3433.24 0 3402.79 0 3365.24C0 3312.2 40.8 3257.8 68 3234.68C97.92 3259.16 136 3312.88 136 3365.24Z" fill="#FF7A00"/>
<path d="M136 4659.24C136 4696.79 105.555 4727.24 68 4727.24C30.4446 4727.24 0 4696.79 0 4659.24C0 4606.2 40.8 4551.8 68 4528.68C97.92 4553.16 136 4606.88 136 4659.24Z" fill="#FF7A00"/>
<path d="M136 777.239C136 814.794 105.555 845.238 68 845.238C30.4446 845.238 0 814.794 0 777.239C0 724.199 40.8 669.799 68 646.679C97.92 671.159 136 724.879 136 777.239Z" fill="#FF7A00"/>
<path d="M136 2286.8C136 2324.35 105.555 2354.8 68 2354.8C30.4446 2354.8 0 2324.35 0 2286.8C0 2233.76 40.8 2179.36 68 2156.24C97.92 2180.72 136 2234.44 136 2286.8Z" fill="#FF9900"/>
<path d="M136 3580.8C136 3618.35 105.555 3648.8 68 3648.8C30.4446 3648.8 0 3618.35 0 3580.8C0 3527.76 40.8 3473.36 68 3450.24C97.92 3474.72 136 3528.44 136 3580.8Z" fill="#FF9900"/>
<path d="M136 4874.8C136 4912.35 105.555 4942.8 68 4942.8C30.4446 4942.8 0 4912.35 0 4874.8C0 4821.76 40.8 4767.36 68 4744.24C97.92 4768.72 136 4822.44 136 4874.8Z" fill="#FF9900"/>
<path d="M136 992.798C136 1030.35 105.555 1060.8 68 1060.8C30.4446 1060.8 0 1030.35 0 992.798C0 939.758 40.8 885.358 68 862.238C97.92 886.718 136 940.438 136 992.798Z" fill="#FF9900"/>
<path d="M136 2502.56C136 2540.12 105.555 2570.56 68 2570.56C30.4446 2570.56 0 2540.12 0 2502.56C0 2449.52 40.8 2395.12 68 2372C97.92 2396.48 136 2450.2 136 2502.56Z" fill="#EA4701"/>
<path d="M136 3796.56C136 3834.12 105.555 3864.56 68 3864.56C30.4446 3864.56 0 3834.12 0 3796.56C0 3743.52 40.8 3689.12 68 3666C97.92 3690.48 136 3744.2 136 3796.56Z" fill="#EA4701"/>
<path d="M136 5090.56C136 5128.12 105.555 5158.56 68 5158.56C30.4446 5158.56 0 5128.12 0 5090.56C0 5037.52 40.8 4983.12 68 4960C97.92 4984.48 136 5038.2 136 5090.56Z" fill="#EA4701"/>
<path d="M136 1208.56C136 1246.12 105.555 1276.56 68 1276.56C30.4446 1276.56 0 1246.12 0 1208.56C0 1155.52 40.8 1101.12 68 1078C97.92 1102.48 136 1156.2 136 1208.56Z" fill="#EA4701"/>
</svg>
