<svg width="167" height="357" viewBox="0 0 167 357" fill="none" xmlns="http://www.w3.org/2000/svg">
<path d="M0.697614 0.699976H83.1556C110.981 0.699976 131.85 8.16531 145.763 23.096C159.675 38.0266 166.632 59.9136 166.632 88.757V123.878C166.632 152.721 159.675 174.608 145.763 189.539C131.85 204.47 110.981 211.935 83.1556 211.935H56.6876V357H0.697614V0.699976ZM83.1556 161.035C92.3176 161.035 99.1043 158.49 103.516 153.4C108.266 148.31 110.642 139.657 110.642 127.441V85.194C110.642 72.978 108.266 64.325 103.516 59.235C99.1043 54.145 92.3176 51.6 83.1556 51.6H56.6876V161.035H83.1556Z" fill="#E40000"/>
</svg>
