<svg width="3774" height="121" viewBox="0 0 3774 121" fill="none" xmlns="http://www.w3.org/2000/svg">
<path d="M65.288 65.536H27.144V96H0.776001V0.767998H65.288C95.368 0.767998 104.712 13.952 104.712 32.384V33.792C104.712 51.84 95.112 65.536 65.288 65.536ZM27.144 22.016V44.288H63.368C72.968 44.288 77.32 40.192 77.32 33.408V32.896C77.32 26.24 72.968 22.016 63.368 22.016H27.144ZM152.029 81.792C166.621 81.792 171.613 72.576 171.613 67.2V61.696C169.437 62.464 163.037 63.872 155.997 65.024C143.965 67.072 140.125 68.864 140.125 73.728V73.984C140.125 78.336 143.325 81.792 152.029 81.792ZM172.381 86.144C169.181 89.856 161.629 97.408 144.989 97.408H142.941C123.101 97.408 114.909 86.528 114.909 74.88V74.368C114.909 61.952 122.589 54.528 146.781 52.48L166.237 50.816C170.077 50.432 171.613 49.024 171.613 46.208C171.613 42.88 170.589 39.296 156.765 39.296C143.709 39.296 142.557 44.288 142.429 47.104H116.829V46.848C116.829 39.808 119.645 23.296 154.589 23.296H158.557C193.757 23.296 195.933 37.76 195.933 47.232V70.656C195.933 75.136 196.957 76.928 201.821 76.928H204.509V96H184.285C176.733 96 173.533 90.88 172.381 86.144ZM243.959 96H218.999V24.96H243.703V36.608C245.495 33.152 252.279 23.424 266.871 23.424H267.639C284.407 23.424 291.831 34.304 291.831 50.944C291.831 54.016 291.831 55.936 291.703 59.008H265.975V57.984C265.975 48.384 263.671 42.88 255.863 42.88C248.055 42.88 243.959 49.152 243.959 58.24V96ZM359.065 76.928V96H336.409C324.889 96 317.977 89.6 317.977 76.8V42.88H302.489V24.96H317.977V3.328H342.809V24.96H359.065V42.88H342.809V68.992C342.809 74.496 344.217 76.928 350.233 76.928H359.065ZM381.744 120.448V102.656H397.36C399.792 102.656 401.072 101.632 401.072 99.712V99.584C401.072 98.048 400.56 96.64 398.768 92.672L368.304 24.96H395.696L415.408 75.904L434.992 24.96H460.08L427.568 103.168C422.704 114.816 416.432 120.448 404.656 120.448H381.744ZM538.663 65.536H500.519V96H474.151V0.767998H538.663C568.743 0.767998 578.087 13.952 578.087 32.384V33.792C578.087 51.84 568.487 65.536 538.663 65.536ZM500.519 22.016V44.288H536.743C546.343 44.288 550.695 40.192 550.695 33.408V32.896C550.695 26.24 546.343 22.016 536.743 22.016H500.519ZM625.404 81.792C639.996 81.792 644.988 72.576 644.988 67.2V61.696C642.812 62.464 636.412 63.872 629.372 65.024C617.34 67.072 613.5 68.864 613.5 73.728V73.984C613.5 78.336 616.7 81.792 625.404 81.792ZM645.756 86.144C642.556 89.856 635.004 97.408 618.364 97.408H616.316C596.476 97.408 588.284 86.528 588.284 74.88V74.368C588.284 61.952 595.964 54.528 620.156 52.48L639.612 50.816C643.452 50.432 644.988 49.024 644.988 46.208C644.988 42.88 643.964 39.296 630.14 39.296C617.084 39.296 615.932 44.288 615.804 47.104H590.204V46.848C590.204 39.808 593.02 23.296 627.964 23.296H631.932C667.132 23.296 669.308 37.76 669.308 47.232V70.656C669.308 75.136 670.332 76.928 675.196 76.928H677.884V96H657.66C650.108 96 646.908 90.88 645.756 86.144ZM717.334 96H692.374V24.96H717.078V36.608C718.87 33.152 725.654 23.424 740.246 23.424H741.014C757.782 23.424 765.206 34.304 765.206 50.944C765.206 54.016 765.206 55.936 765.078 59.008H739.35V57.984C739.35 48.384 737.046 42.88 729.238 42.88C721.43 42.88 717.334 49.152 717.334 58.24V96ZM832.44 76.928V96H809.784C798.264 96 791.352 89.6 791.352 76.8V42.88H775.864V24.96H791.352V3.328H816.184V24.96H832.44V42.88H816.184V68.992C816.184 74.496 817.592 76.928 823.608 76.928H832.44ZM855.119 120.448V102.656H870.735C873.167 102.656 874.447 101.632 874.447 99.712V99.584C874.447 98.048 873.935 96.64 872.143 92.672L841.679 24.96H869.071L888.783 75.904L908.367 24.96H933.455L900.943 103.168C896.079 114.816 889.807 120.448 878.031 120.448H855.119ZM1012.04 65.536H973.894V96H947.526V0.767998H1012.04C1042.12 0.767998 1051.46 13.952 1051.46 32.384V33.792C1051.46 51.84 1041.86 65.536 1012.04 65.536ZM973.894 22.016V44.288H1010.12C1019.72 44.288 1024.07 40.192 1024.07 33.408V32.896C1024.07 26.24 1019.72 22.016 1010.12 22.016H973.894ZM1098.78 81.792C1113.37 81.792 1118.36 72.576 1118.36 67.2V61.696C1116.19 62.464 1109.79 63.872 1102.75 65.024C1090.72 67.072 1086.88 68.864 1086.88 73.728V73.984C1086.88 78.336 1090.08 81.792 1098.78 81.792ZM1119.13 86.144C1115.93 89.856 1108.38 97.408 1091.74 97.408H1089.69C1069.85 97.408 1061.66 86.528 1061.66 74.88V74.368C1061.66 61.952 1069.34 54.528 1093.53 52.48L1112.99 50.816C1116.83 50.432 1118.36 49.024 1118.36 46.208C1118.36 42.88 1117.34 39.296 1103.52 39.296C1090.46 39.296 1089.31 44.288 1089.18 47.104H1063.58V46.848C1063.58 39.808 1066.4 23.296 1101.34 23.296H1105.31C1140.51 23.296 1142.68 37.76 1142.68 47.232V70.656C1142.68 75.136 1143.71 76.928 1148.57 76.928H1151.26V96H1131.04C1123.48 96 1120.28 90.88 1119.13 86.144ZM1190.71 96H1165.75V24.96H1190.45V36.608C1192.25 33.152 1199.03 23.424 1213.62 23.424H1214.39C1231.16 23.424 1238.58 34.304 1238.58 50.944C1238.58 54.016 1238.58 55.936 1238.45 59.008H1212.73V57.984C1212.73 48.384 1210.42 42.88 1202.61 42.88C1194.81 42.88 1190.71 49.152 1190.71 58.24V96ZM1305.82 76.928V96H1283.16C1271.64 96 1264.73 89.6 1264.73 76.8V42.88H1249.24V24.96H1264.73V3.328H1289.56V24.96H1305.82V42.88H1289.56V68.992C1289.56 74.496 1290.97 76.928 1296.98 76.928H1305.82ZM1328.49 120.448V102.656H1344.11C1346.54 102.656 1347.82 101.632 1347.82 99.712V99.584C1347.82 98.048 1347.31 96.64 1345.52 92.672L1315.05 24.96H1342.45L1362.16 75.904L1381.74 24.96H1406.83L1374.32 103.168C1369.45 114.816 1363.18 120.448 1351.41 120.448H1328.49ZM1485.41 65.536H1447.27V96H1420.9V0.767998H1485.41C1515.49 0.767998 1524.84 13.952 1524.84 32.384V33.792C1524.84 51.84 1515.24 65.536 1485.41 65.536ZM1447.27 22.016V44.288H1483.49C1493.09 44.288 1497.45 40.192 1497.45 33.408V32.896C1497.45 26.24 1493.09 22.016 1483.49 22.016H1447.27ZM1572.15 81.792C1586.75 81.792 1591.74 72.576 1591.74 67.2V61.696C1589.56 62.464 1583.16 63.872 1576.12 65.024C1564.09 67.072 1560.25 68.864 1560.25 73.728V73.984C1560.25 78.336 1563.45 81.792 1572.15 81.792ZM1592.51 86.144C1589.31 89.856 1581.75 97.408 1565.11 97.408H1563.07C1543.23 97.408 1535.03 86.528 1535.03 74.88V74.368C1535.03 61.952 1542.71 54.528 1566.91 52.48L1586.36 50.816C1590.2 50.432 1591.74 49.024 1591.74 46.208C1591.74 42.88 1590.71 39.296 1576.89 39.296C1563.83 39.296 1562.68 44.288 1562.55 47.104H1536.95V46.848C1536.95 39.808 1539.77 23.296 1574.71 23.296H1578.68C1613.88 23.296 1616.06 37.76 1616.06 47.232V70.656C1616.06 75.136 1617.08 76.928 1621.95 76.928H1624.63V96H1604.41C1596.86 96 1593.66 90.88 1592.51 86.144ZM1664.08 96H1639.12V24.96H1663.83V36.608C1665.62 33.152 1672.4 23.424 1687 23.424H1687.76C1704.53 23.424 1711.96 34.304 1711.96 50.944C1711.96 54.016 1711.96 55.936 1711.83 59.008H1686.1V57.984C1686.1 48.384 1683.8 42.88 1675.99 42.88C1668.18 42.88 1664.08 49.152 1664.08 58.24V96ZM1779.19 76.928V96H1756.53C1745.01 96 1738.1 89.6 1738.1 76.8V42.88H1722.61V24.96H1738.1V3.328H1762.93V24.96H1779.19V42.88H1762.93V68.992C1762.93 74.496 1764.34 76.928 1770.36 76.928H1779.19ZM1801.87 120.448V102.656H1817.49C1819.92 102.656 1821.2 101.632 1821.2 99.712V99.584C1821.2 98.048 1820.69 96.64 1818.89 92.672L1788.43 24.96H1815.82L1835.53 75.904L1855.12 24.96H1880.21L1847.69 103.168C1842.83 114.816 1836.56 120.448 1824.78 120.448H1801.87ZM1958.79 65.536H1920.64V96H1894.28V0.767998H1958.79C1988.87 0.767998 1998.21 13.952 1998.21 32.384V33.792C1998.21 51.84 1988.61 65.536 1958.79 65.536ZM1920.64 22.016V44.288H1956.87C1966.47 44.288 1970.82 40.192 1970.82 33.408V32.896C1970.82 26.24 1966.47 22.016 1956.87 22.016H1920.64ZM2045.53 81.792C2060.12 81.792 2065.11 72.576 2065.11 67.2V61.696C2062.94 62.464 2056.54 63.872 2049.5 65.024C2037.47 67.072 2033.62 68.864 2033.62 73.728V73.984C2033.62 78.336 2036.83 81.792 2045.53 81.792ZM2065.88 86.144C2062.68 89.856 2055.13 97.408 2038.49 97.408H2036.44C2016.6 97.408 2008.41 86.528 2008.41 74.88V74.368C2008.41 61.952 2016.09 54.528 2040.28 52.48L2059.74 50.816C2063.58 50.432 2065.11 49.024 2065.11 46.208C2065.11 42.88 2064.09 39.296 2050.27 39.296C2037.21 39.296 2036.06 44.288 2035.93 47.104H2010.33V46.848C2010.33 39.808 2013.15 23.296 2048.09 23.296H2052.06C2087.26 23.296 2089.43 37.76 2089.43 47.232V70.656C2089.43 75.136 2090.46 76.928 2095.32 76.928H2098.01V96H2077.79C2070.23 96 2067.03 90.88 2065.88 86.144ZM2137.46 96H2112.5V24.96H2137.2V36.608C2139 33.152 2145.78 23.424 2160.37 23.424H2161.14C2177.91 23.424 2185.33 34.304 2185.33 50.944C2185.33 54.016 2185.33 55.936 2185.2 59.008H2159.48V57.984C2159.48 48.384 2157.17 42.88 2149.36 42.88C2141.56 42.88 2137.46 49.152 2137.46 58.24V96ZM2252.57 76.928V96H2229.91C2218.39 96 2211.48 89.6 2211.48 76.8V42.88H2195.99V24.96H2211.48V3.328H2236.31V24.96H2252.57V42.88H2236.31V68.992C2236.31 74.496 2237.72 76.928 2243.73 76.928H2252.57ZM2275.24 120.448V102.656H2290.86C2293.29 102.656 2294.57 101.632 2294.57 99.712V99.584C2294.57 98.048 2294.06 96.64 2292.27 92.672L2261.8 24.96H2289.2L2308.91 75.904L2328.49 24.96H2353.58L2321.07 103.168C2316.2 114.816 2309.93 120.448 2298.16 120.448H2275.24ZM2432.16 65.536H2394.02V96H2367.65V0.767998H2432.16C2462.24 0.767998 2471.59 13.952 2471.59 32.384V33.792C2471.59 51.84 2461.99 65.536 2432.16 65.536ZM2394.02 22.016V44.288H2430.24C2439.84 44.288 2444.2 40.192 2444.2 33.408V32.896C2444.2 26.24 2439.84 22.016 2430.24 22.016H2394.02ZM2518.9 81.792C2533.5 81.792 2538.49 72.576 2538.49 67.2V61.696C2536.31 62.464 2529.91 63.872 2522.87 65.024C2510.84 67.072 2507 68.864 2507 73.728V73.984C2507 78.336 2510.2 81.792 2518.9 81.792ZM2539.26 86.144C2536.06 89.856 2528.5 97.408 2511.86 97.408H2509.82C2489.98 97.408 2481.78 86.528 2481.78 74.88V74.368C2481.78 61.952 2489.46 54.528 2513.66 52.48L2533.11 50.816C2536.95 50.432 2538.49 49.024 2538.49 46.208C2538.49 42.88 2537.46 39.296 2523.64 39.296C2510.58 39.296 2509.43 44.288 2509.3 47.104H2483.7V46.848C2483.7 39.808 2486.52 23.296 2521.46 23.296H2525.43C2560.63 23.296 2562.81 37.76 2562.81 47.232V70.656C2562.81 75.136 2563.83 76.928 2568.7 76.928H2571.38V96H2551.16C2543.61 96 2540.41 90.88 2539.26 86.144ZM2610.83 96H2585.87V24.96H2610.58V36.608C2612.37 33.152 2619.15 23.424 2633.75 23.424H2634.51C2651.28 23.424 2658.71 34.304 2658.71 50.944C2658.71 54.016 2658.71 55.936 2658.58 59.008H2632.85V57.984C2632.85 48.384 2630.55 42.88 2622.74 42.88C2614.93 42.88 2610.83 49.152 2610.83 58.24V96ZM2725.94 76.928V96H2703.28C2691.76 96 2684.85 89.6 2684.85 76.8V42.88H2669.36V24.96H2684.85V3.328H2709.68V24.96H2725.94V42.88H2709.68V68.992C2709.68 74.496 2711.09 76.928 2717.11 76.928H2725.94ZM2748.62 120.448V102.656H2764.24C2766.67 102.656 2767.95 101.632 2767.95 99.712V99.584C2767.95 98.048 2767.44 96.64 2765.64 92.672L2735.18 24.96H2762.57L2782.28 75.904L2801.87 24.96H2826.96L2794.44 103.168C2789.58 114.816 2783.31 120.448 2771.53 120.448H2748.62ZM2905.54 65.536H2867.39V96H2841.03V0.767998H2905.54C2935.62 0.767998 2944.96 13.952 2944.96 32.384V33.792C2944.96 51.84 2935.36 65.536 2905.54 65.536ZM2867.39 22.016V44.288H2903.62C2913.22 44.288 2917.57 40.192 2917.57 33.408V32.896C2917.57 26.24 2913.22 22.016 2903.62 22.016H2867.39ZM2992.28 81.792C3006.87 81.792 3011.86 72.576 3011.86 67.2V61.696C3009.69 62.464 3003.29 63.872 2996.25 65.024C2984.22 67.072 2980.38 68.864 2980.38 73.728V73.984C2980.38 78.336 2983.58 81.792 2992.28 81.792ZM3012.63 86.144C3009.43 89.856 3001.88 97.408 2985.24 97.408H2983.19C2963.35 97.408 2955.16 86.528 2955.16 74.88V74.368C2955.16 61.952 2962.84 54.528 2987.03 52.48L3006.49 50.816C3010.33 50.432 3011.86 49.024 3011.86 46.208C3011.86 42.88 3010.84 39.296 2997.02 39.296C2983.96 39.296 2982.81 44.288 2982.68 47.104H2957.08V46.848C2957.08 39.808 2959.9 23.296 2994.84 23.296H2998.81C3034.01 23.296 3036.18 37.76 3036.18 47.232V70.656C3036.18 75.136 3037.21 76.928 3042.07 76.928H3044.76V96H3024.54C3016.98 96 3013.78 90.88 3012.63 86.144ZM3084.21 96H3059.25V24.96H3083.95V36.608C3085.75 33.152 3092.53 23.424 3107.12 23.424H3107.89C3124.66 23.424 3132.08 34.304 3132.08 50.944C3132.08 54.016 3132.08 55.936 3131.95 59.008H3106.23V57.984C3106.23 48.384 3103.92 42.88 3096.11 42.88C3088.31 42.88 3084.21 49.152 3084.21 58.24V96ZM3199.32 76.928V96H3176.66C3165.14 96 3158.23 89.6 3158.23 76.8V42.88H3142.74V24.96H3158.23V3.328H3183.06V24.96H3199.32V42.88H3183.06V68.992C3183.06 74.496 3184.47 76.928 3190.48 76.928H3199.32ZM3221.99 120.448V102.656H3237.61C3240.04 102.656 3241.32 101.632 3241.32 99.712V99.584C3241.32 98.048 3240.81 96.64 3239.02 92.672L3208.55 24.96H3235.95L3255.66 75.904L3275.24 24.96H3300.33L3267.82 103.168C3262.95 114.816 3256.68 120.448 3244.91 120.448H3221.99ZM3378.91 65.536H3340.77V96H3314.4V0.767998H3378.91C3408.99 0.767998 3418.34 13.952 3418.34 32.384V33.792C3418.34 51.84 3408.74 65.536 3378.91 65.536ZM3340.77 22.016V44.288H3376.99C3386.59 44.288 3390.95 40.192 3390.95 33.408V32.896C3390.95 26.24 3386.59 22.016 3376.99 22.016H3340.77ZM3465.65 81.792C3480.25 81.792 3485.24 72.576 3485.24 67.2V61.696C3483.06 62.464 3476.66 63.872 3469.62 65.024C3457.59 67.072 3453.75 68.864 3453.75 73.728V73.984C3453.75 78.336 3456.95 81.792 3465.65 81.792ZM3486.01 86.144C3482.81 89.856 3475.25 97.408 3458.61 97.408H3456.57C3436.73 97.408 3428.53 86.528 3428.53 74.88V74.368C3428.53 61.952 3436.21 54.528 3460.41 52.48L3479.86 50.816C3483.7 50.432 3485.24 49.024 3485.24 46.208C3485.24 42.88 3484.21 39.296 3470.39 39.296C3457.33 39.296 3456.18 44.288 3456.05 47.104H3430.45V46.848C3430.45 39.808 3433.27 23.296 3468.21 23.296H3472.18C3507.38 23.296 3509.56 37.76 3509.56 47.232V70.656C3509.56 75.136 3510.58 76.928 3515.45 76.928H3518.13V96H3497.91C3490.36 96 3487.16 90.88 3486.01 86.144ZM3557.58 96H3532.62V24.96H3557.33V36.608C3559.12 33.152 3565.9 23.424 3580.5 23.424H3581.26C3598.03 23.424 3605.46 34.304 3605.46 50.944C3605.46 54.016 3605.46 55.936 3605.33 59.008H3579.6V57.984C3579.6 48.384 3577.3 42.88 3569.49 42.88C3561.68 42.88 3557.58 49.152 3557.58 58.24V96ZM3672.69 76.928V96H3650.03C3638.51 96 3631.6 89.6 3631.6 76.8V42.88H3616.11V24.96H3631.6V3.328H3656.43V24.96H3672.69V42.88H3656.43V68.992C3656.43 74.496 3657.84 76.928 3663.86 76.928H3672.69ZM3695.37 120.448V102.656H3710.99C3713.42 102.656 3714.7 101.632 3714.7 99.712V99.584C3714.7 98.048 3714.19 96.64 3712.39 92.672L3681.93 24.96H3709.32L3729.03 75.904L3748.62 24.96H3773.71L3741.19 103.168C3736.33 114.816 3730.06 120.448 3718.28 120.448H3695.37Z" fill="#FF9900"/>
</svg>
