<svg width="173" height="357" viewBox="0 0 173 357" fill="none" xmlns="http://www.w3.org/2000/svg">
<path d="M0.223981 0.699976H83.191C112.034 0.699976 133.073 7.48665 146.307 21.06C159.541 34.294 166.158 54.8236 166.158 82.649V104.536C166.158 141.523 153.942 164.937 129.51 174.778V175.796C143.083 179.868 152.585 188.182 158.014 200.737C163.783 213.292 166.667 230.089 166.667 251.128V313.735C166.667 323.915 167.006 332.229 167.685 338.676C168.364 344.784 170.06 350.892 172.775 357H115.767C113.731 351.231 112.374 345.802 111.695 340.712C111.016 335.622 110.677 326.46 110.677 313.226V248.074C110.677 231.786 107.962 220.418 102.533 213.971C97.443 207.524 88.4507 204.3 75.556 204.3H56.214V357H0.223981V0.699976ZM76.574 153.4C87.772 153.4 96.0857 150.516 101.515 144.747C107.284 138.978 110.168 129.307 110.168 115.734V88.248C110.168 75.3533 107.793 66.0217 103.042 60.253C98.6307 54.4843 91.5046 51.6 81.664 51.6H56.214V153.4H76.574Z" fill="#FF7A00"/>
</svg>
