<svg width="1920" height="652" viewBox="0 0 1920 652" fill="none" xmlns="http://www.w3.org/2000/svg">
<path d="M238.562 271.108L0 426.07V652L963 651.735V0H798.627C796.562 0 794.501 0.199906 792.475 0.596925L607.18 36.8969C601.012 38.1052 594.649 37.8793 588.582 36.2367L462.007 1.96498C457.569 0.763193 452.834 2.20349 449.816 5.67326L375.663 90.9398L256.159 254.455C251.354 261.029 245.391 266.673 238.562 271.108Z" fill="#100700"/>
<path d="M1682.97 271.14L1920 426.07V652L963 651.735V0H1126.31C1128.39 0 1130.46 0.202362 1132.5 0.604222L1316.49 36.8742C1322.69 38.0972 1329.09 37.8687 1335.2 36.2064L1460.79 1.98673C1465.25 0.772607 1470.01 2.22367 1473.03 5.71808L1546.68 90.9398L1665.42 254.43C1670.21 261.021 1676.15 266.683 1682.97 271.14Z" fill="#100700"/>
</svg>
