<svg width="4084" height="99" viewBox="0 0 4084 99" fill="none" xmlns="http://www.w3.org/2000/svg">
<path d="M79.512 97H44.824L0.664 1.768H31.384L62.36 73.96L93.464 1.768H122.136L79.512 97ZM165.069 98.92C126.797 98.92 120.909 75.624 120.909 62.696V60.904C120.909 48.232 126.797 24.04 164.941 24.04H169.165C208.589 24.04 213.197 48.232 213.197 60.776V62.824C213.197 75.624 208.589 98.92 169.037 98.92H165.069ZM167.757 80.232C183.501 80.232 187.469 68.968 187.469 61.16C187.469 53.096 183.501 42.344 167.757 42.344H166.349C150.093 42.344 146.637 53.096 146.637 61.16C146.637 68.968 150.093 80.232 166.349 80.232H167.757ZM255.584 0.103996V97H230.624V0.103996H255.584ZM362.122 69.096C362.122 79.848 355.722 98.92 321.546 98.92H315.274C279.69 98.92 273.162 75.88 273.162 62.44V60.648C273.162 47.208 279.434 24.04 315.146 24.04H321.034C355.466 24.04 362.122 42.856 362.122 52.968V53.096H336.01C335.754 51.048 333.194 42.216 318.474 42.216H317.194C302.602 42.216 299.018 52.2 299.018 60.904V61.032C299.018 69.864 303.242 80.36 317.706 80.36H318.986C333.834 80.36 335.882 70.888 336.01 69.096H362.122ZM412.654 82.792C427.246 82.792 432.238 73.576 432.238 68.2V62.696C430.062 63.464 423.662 64.872 416.622 66.024C404.59 68.072 400.75 69.864 400.75 74.728V74.984C400.75 79.336 403.95 82.792 412.654 82.792ZM433.006 87.144C429.806 90.856 422.254 98.408 405.614 98.408H403.566C383.726 98.408 375.534 87.528 375.534 75.88V75.368C375.534 62.952 383.214 55.528 407.406 53.48L426.862 51.816C430.702 51.432 432.238 50.024 432.238 47.208C432.238 43.88 431.214 40.296 417.39 40.296C404.334 40.296 403.182 45.288 403.054 48.104H377.454V47.848C377.454 40.808 380.27 24.296 415.214 24.296H419.182C454.382 24.296 456.558 38.76 456.558 48.232V71.656C456.558 76.136 457.582 77.928 462.446 77.928H465.134V97H444.91C437.358 97 434.158 91.88 433.006 87.144ZM479.624 97V25.96H504.328V37.224C507.272 33.384 517 24.296 533.128 24.296H534.408C555.144 24.296 564.616 38.376 564.616 50.92V97H539.656V60.008C539.656 51.816 534.92 43.88 522.632 43.88C510.728 43.88 504.584 52.2 504.584 60.904V97H479.624ZM625.944 98.92C587.672 98.92 581.784 75.624 581.784 62.696V60.904C581.784 48.232 587.672 24.04 625.816 24.04H630.04C669.464 24.04 674.072 48.232 674.072 60.776V62.824C674.072 75.624 669.464 98.92 629.912 98.92H625.944ZM628.632 80.232C644.376 80.232 648.344 68.968 648.344 61.16C648.344 53.096 644.376 42.344 628.632 42.344H627.224C610.968 42.344 607.512 53.096 607.512 61.16C607.512 68.968 610.968 80.232 627.224 80.232H628.632ZM761.387 97H726.699L682.539 1.768H713.259L744.235 73.96L775.339 1.768H804.011L761.387 97ZM846.944 98.92C808.672 98.92 802.784 75.624 802.784 62.696V60.904C802.784 48.232 808.672 24.04 846.816 24.04H851.04C890.464 24.04 895.072 48.232 895.072 60.776V62.824C895.072 75.624 890.464 98.92 850.912 98.92H846.944ZM849.632 80.232C865.376 80.232 869.344 68.968 869.344 61.16C869.344 53.096 865.376 42.344 849.632 42.344H848.224C831.968 42.344 828.512 53.096 828.512 61.16C828.512 68.968 831.968 80.232 848.224 80.232H849.632ZM937.459 0.103996V97H912.499V0.103996H937.459ZM1044 69.096C1044 79.848 1037.6 98.92 1003.42 98.92H997.149C961.565 98.92 955.037 75.88 955.037 62.44V60.648C955.037 47.208 961.309 24.04 997.021 24.04H1002.91C1037.34 24.04 1044 42.856 1044 52.968V53.096H1017.89C1017.63 51.048 1015.07 42.216 1000.35 42.216H999.069C984.477 42.216 980.893 52.2 980.893 60.904V61.032C980.893 69.864 985.117 80.36 999.581 80.36H1000.86C1015.71 80.36 1017.76 70.888 1017.89 69.096H1044ZM1094.53 82.792C1109.12 82.792 1114.11 73.576 1114.11 68.2V62.696C1111.94 63.464 1105.54 64.872 1098.5 66.024C1086.47 68.072 1082.62 69.864 1082.62 74.728V74.984C1082.62 79.336 1085.83 82.792 1094.53 82.792ZM1114.88 87.144C1111.68 90.856 1104.13 98.408 1087.49 98.408H1085.44C1065.6 98.408 1057.41 87.528 1057.41 75.88V75.368C1057.41 62.952 1065.09 55.528 1089.28 53.48L1108.74 51.816C1112.58 51.432 1114.11 50.024 1114.11 47.208C1114.11 43.88 1113.09 40.296 1099.27 40.296C1086.21 40.296 1085.06 45.288 1084.93 48.104H1059.33V47.848C1059.33 40.808 1062.15 24.296 1097.09 24.296H1101.06C1136.26 24.296 1138.43 38.76 1138.43 48.232V71.656C1138.43 76.136 1139.46 77.928 1144.32 77.928H1147.01V97H1126.79C1119.23 97 1116.03 91.88 1114.88 87.144ZM1161.5 97V25.96H1186.2V37.224C1189.15 33.384 1198.88 24.296 1215 24.296H1216.28C1237.02 24.296 1246.49 38.376 1246.49 50.92V97H1221.53V60.008C1221.53 51.816 1216.8 43.88 1204.51 43.88C1192.6 43.88 1186.46 52.2 1186.46 60.904V97H1161.5ZM1307.82 98.92C1269.55 98.92 1263.66 75.624 1263.66 62.696V60.904C1263.66 48.232 1269.55 24.04 1307.69 24.04H1311.92C1351.34 24.04 1355.95 48.232 1355.95 60.776V62.824C1355.95 75.624 1351.34 98.92 1311.79 98.92H1307.82ZM1310.51 80.232C1326.25 80.232 1330.22 68.968 1330.22 61.16C1330.22 53.096 1326.25 42.344 1310.51 42.344H1309.1C1292.84 42.344 1289.39 53.096 1289.39 61.16C1289.39 68.968 1292.84 80.232 1309.1 80.232H1310.51ZM1443.26 97H1408.57L1364.41 1.768H1395.13L1426.11 73.96L1457.21 1.768H1485.89L1443.26 97ZM1528.82 98.92C1490.55 98.92 1484.66 75.624 1484.66 62.696V60.904C1484.66 48.232 1490.55 24.04 1528.69 24.04H1532.92C1572.34 24.04 1576.95 48.232 1576.95 60.776V62.824C1576.95 75.624 1572.34 98.92 1532.79 98.92H1528.82ZM1531.51 80.232C1547.25 80.232 1551.22 68.968 1551.22 61.16C1551.22 53.096 1547.25 42.344 1531.51 42.344H1530.1C1513.84 42.344 1510.39 53.096 1510.39 61.16C1510.39 68.968 1513.84 80.232 1530.1 80.232H1531.51ZM1619.33 0.103996V97H1594.37V0.103996H1619.33ZM1725.87 69.096C1725.87 79.848 1719.47 98.92 1685.3 98.92H1679.02C1643.44 98.92 1636.91 75.88 1636.91 62.44V60.648C1636.91 47.208 1643.18 24.04 1678.9 24.04H1684.78C1719.22 24.04 1725.87 42.856 1725.87 52.968V53.096H1699.76C1699.5 51.048 1696.94 42.216 1682.22 42.216H1680.94C1666.35 42.216 1662.77 52.2 1662.77 60.904V61.032C1662.77 69.864 1666.99 80.36 1681.46 80.36H1682.74C1697.58 80.36 1699.63 70.888 1699.76 69.096H1725.87ZM1776.4 82.792C1791 82.792 1795.99 73.576 1795.99 68.2V62.696C1793.81 63.464 1787.41 64.872 1780.37 66.024C1768.34 68.072 1764.5 69.864 1764.5 74.728V74.984C1764.5 79.336 1767.7 82.792 1776.4 82.792ZM1796.76 87.144C1793.56 90.856 1786 98.408 1769.36 98.408H1767.32C1747.48 98.408 1739.28 87.528 1739.28 75.88V75.368C1739.28 62.952 1746.96 55.528 1771.16 53.48L1790.61 51.816C1794.45 51.432 1795.99 50.024 1795.99 47.208C1795.99 43.88 1794.96 40.296 1781.14 40.296C1768.08 40.296 1766.93 45.288 1766.8 48.104H1741.2V47.848C1741.2 40.808 1744.02 24.296 1778.96 24.296H1782.93C1818.13 24.296 1820.31 38.76 1820.31 48.232V71.656C1820.31 76.136 1821.33 77.928 1826.2 77.928H1828.88V97H1808.66C1801.11 97 1797.91 91.88 1796.76 87.144ZM1843.37 97V25.96H1868.08V37.224C1871.02 33.384 1880.75 24.296 1896.88 24.296H1898.16C1918.89 24.296 1928.37 38.376 1928.37 50.92V97H1903.41V60.008C1903.41 51.816 1898.67 43.88 1886.38 43.88C1874.48 43.88 1868.33 52.2 1868.33 60.904V97H1843.37ZM1989.69 98.92C1951.42 98.92 1945.53 75.624 1945.53 62.696V60.904C1945.53 48.232 1951.42 24.04 1989.57 24.04H1993.79C2033.21 24.04 2037.82 48.232 2037.82 60.776V62.824C2037.82 75.624 2033.21 98.92 1993.66 98.92H1989.69ZM1992.38 80.232C2008.13 80.232 2012.09 68.968 2012.09 61.16C2012.09 53.096 2008.13 42.344 1992.38 42.344H1990.97C1974.72 42.344 1971.26 53.096 1971.26 61.16C1971.26 68.968 1974.72 80.232 1990.97 80.232H1992.38ZM2125.14 97H2090.45L2046.29 1.768H2077.01L2107.99 73.96L2139.09 1.768H2167.76L2125.14 97ZM2210.69 98.92C2172.42 98.92 2166.53 75.624 2166.53 62.696V60.904C2166.53 48.232 2172.42 24.04 2210.57 24.04H2214.79C2254.21 24.04 2258.82 48.232 2258.82 60.776V62.824C2258.82 75.624 2254.21 98.92 2214.66 98.92H2210.69ZM2213.38 80.232C2229.13 80.232 2233.09 68.968 2233.09 61.16C2233.09 53.096 2229.13 42.344 2213.38 42.344H2211.97C2195.72 42.344 2192.26 53.096 2192.26 61.16C2192.26 68.968 2195.72 80.232 2211.97 80.232H2213.38ZM2301.21 0.103996V97H2276.25V0.103996H2301.21ZM2407.75 69.096C2407.75 79.848 2401.35 98.92 2367.17 98.92H2360.9C2325.32 98.92 2318.79 75.88 2318.79 62.44V60.648C2318.79 47.208 2325.06 24.04 2360.77 24.04H2366.66C2401.09 24.04 2407.75 42.856 2407.75 52.968V53.096H2381.64C2381.38 51.048 2378.82 42.216 2364.1 42.216H2362.82C2348.23 42.216 2344.64 52.2 2344.64 60.904V61.032C2344.64 69.864 2348.87 80.36 2363.33 80.36H2364.61C2379.46 80.36 2381.51 70.888 2381.64 69.096H2407.75ZM2458.28 82.792C2472.87 82.792 2477.86 73.576 2477.86 68.2V62.696C2475.69 63.464 2469.29 64.872 2462.25 66.024C2450.22 68.072 2446.38 69.864 2446.38 74.728V74.984C2446.38 79.336 2449.58 82.792 2458.28 82.792ZM2478.63 87.144C2475.43 90.856 2467.88 98.408 2451.24 98.408H2449.19C2429.35 98.408 2421.16 87.528 2421.16 75.88V75.368C2421.16 62.952 2428.84 55.528 2453.03 53.48L2472.49 51.816C2476.33 51.432 2477.86 50.024 2477.86 47.208C2477.86 43.88 2476.84 40.296 2463.02 40.296C2449.96 40.296 2448.81 45.288 2448.68 48.104H2423.08V47.848C2423.08 40.808 2425.9 24.296 2460.84 24.296H2464.81C2500.01 24.296 2502.18 38.76 2502.18 48.232V71.656C2502.18 76.136 2503.21 77.928 2508.07 77.928H2510.76V97H2490.54C2482.98 97 2479.78 91.88 2478.63 87.144ZM2525.25 97V25.96H2549.95V37.224C2552.9 33.384 2562.63 24.296 2578.75 24.296H2580.03C2600.77 24.296 2610.24 38.376 2610.24 50.92V97H2585.28V60.008C2585.28 51.816 2580.55 43.88 2568.26 43.88C2556.35 43.88 2550.21 52.2 2550.21 60.904V97H2525.25ZM2671.57 98.92C2633.3 98.92 2627.41 75.624 2627.41 62.696V60.904C2627.41 48.232 2633.3 24.04 2671.44 24.04H2675.67C2715.09 24.04 2719.7 48.232 2719.7 60.776V62.824C2719.7 75.624 2715.09 98.92 2675.54 98.92H2671.57ZM2674.26 80.232C2690 80.232 2693.97 68.968 2693.97 61.16C2693.97 53.096 2690 42.344 2674.26 42.344H2672.85C2656.59 42.344 2653.14 53.096 2653.14 61.16C2653.14 68.968 2656.59 80.232 2672.85 80.232H2674.26ZM2807.01 97H2772.32L2728.16 1.768H2758.88L2789.86 73.96L2820.96 1.768H2849.64L2807.01 97ZM2892.57 98.92C2854.3 98.92 2848.41 75.624 2848.41 62.696V60.904C2848.41 48.232 2854.3 24.04 2892.44 24.04H2896.67C2936.09 24.04 2940.7 48.232 2940.7 60.776V62.824C2940.7 75.624 2936.09 98.92 2896.54 98.92H2892.57ZM2895.26 80.232C2911 80.232 2914.97 68.968 2914.97 61.16C2914.97 53.096 2911 42.344 2895.26 42.344H2893.85C2877.59 42.344 2874.14 53.096 2874.14 61.16C2874.14 68.968 2877.59 80.232 2893.85 80.232H2895.26ZM2983.08 0.103996V97H2958.12V0.103996H2983.08ZM3089.62 69.096C3089.62 79.848 3083.22 98.92 3049.05 98.92H3042.77C3007.19 98.92 3000.66 75.88 3000.66 62.44V60.648C3000.66 47.208 3006.93 24.04 3042.65 24.04H3048.53C3082.97 24.04 3089.62 42.856 3089.62 52.968V53.096H3063.51C3063.25 51.048 3060.69 42.216 3045.97 42.216H3044.69C3030.1 42.216 3026.52 52.2 3026.52 60.904V61.032C3026.52 69.864 3030.74 80.36 3045.21 80.36H3046.49C3061.33 80.36 3063.38 70.888 3063.51 69.096H3089.62ZM3140.15 82.792C3154.75 82.792 3159.74 73.576 3159.74 68.2V62.696C3157.56 63.464 3151.16 64.872 3144.12 66.024C3132.09 68.072 3128.25 69.864 3128.25 74.728V74.984C3128.25 79.336 3131.45 82.792 3140.15 82.792ZM3160.51 87.144C3157.31 90.856 3149.75 98.408 3133.11 98.408H3131.07C3111.23 98.408 3103.03 87.528 3103.03 75.88V75.368C3103.03 62.952 3110.71 55.528 3134.91 53.48L3154.36 51.816C3158.2 51.432 3159.74 50.024 3159.74 47.208C3159.74 43.88 3158.71 40.296 3144.89 40.296C3131.83 40.296 3130.68 45.288 3130.55 48.104H3104.95V47.848C3104.95 40.808 3107.77 24.296 3142.71 24.296H3146.68C3181.88 24.296 3184.06 38.76 3184.06 48.232V71.656C3184.06 76.136 3185.08 77.928 3189.95 77.928H3192.63V97H3172.41C3164.86 97 3161.66 91.88 3160.51 87.144ZM3207.12 97V25.96H3231.83V37.224C3234.77 33.384 3244.5 24.296 3260.63 24.296H3261.91C3282.64 24.296 3292.12 38.376 3292.12 50.92V97H3267.16V60.008C3267.16 51.816 3262.42 43.88 3250.13 43.88C3238.23 43.88 3232.08 52.2 3232.08 60.904V97H3207.12ZM3353.44 98.92C3315.17 98.92 3309.28 75.624 3309.28 62.696V60.904C3309.28 48.232 3315.17 24.04 3353.32 24.04H3357.54C3396.96 24.04 3401.57 48.232 3401.57 60.776V62.824C3401.57 75.624 3396.96 98.92 3357.41 98.92H3353.44ZM3356.13 80.232C3371.88 80.232 3375.84 68.968 3375.84 61.16C3375.84 53.096 3371.88 42.344 3356.13 42.344H3354.72C3338.47 42.344 3335.01 53.096 3335.01 61.16C3335.01 68.968 3338.47 80.232 3354.72 80.232H3356.13ZM3488.89 97H3454.2L3410.04 1.768H3440.76L3471.74 73.96L3502.84 1.768H3531.51L3488.89 97ZM3574.44 98.92C3536.17 98.92 3530.28 75.624 3530.28 62.696V60.904C3530.28 48.232 3536.17 24.04 3574.32 24.04H3578.54C3617.96 24.04 3622.57 48.232 3622.57 60.776V62.824C3622.57 75.624 3617.96 98.92 3578.41 98.92H3574.44ZM3577.13 80.232C3592.88 80.232 3596.84 68.968 3596.84 61.16C3596.84 53.096 3592.88 42.344 3577.13 42.344H3575.72C3559.47 42.344 3556.01 53.096 3556.01 61.16C3556.01 68.968 3559.47 80.232 3575.72 80.232H3577.13ZM3664.96 0.103996V97H3640V0.103996H3664.96ZM3771.5 69.096C3771.5 79.848 3765.1 98.92 3730.92 98.92H3724.65C3689.07 98.92 3682.54 75.88 3682.54 62.44V60.648C3682.54 47.208 3688.81 24.04 3724.52 24.04H3730.41C3764.84 24.04 3771.5 42.856 3771.5 52.968V53.096H3745.39C3745.13 51.048 3742.57 42.216 3727.85 42.216H3726.57C3711.98 42.216 3708.39 52.2 3708.39 60.904V61.032C3708.39 69.864 3712.62 80.36 3727.08 80.36H3728.36C3743.21 80.36 3745.26 70.888 3745.39 69.096H3771.5ZM3822.03 82.792C3836.62 82.792 3841.61 73.576 3841.61 68.2V62.696C3839.44 63.464 3833.04 64.872 3826 66.024C3813.97 68.072 3810.12 69.864 3810.12 74.728V74.984C3810.12 79.336 3813.33 82.792 3822.03 82.792ZM3842.38 87.144C3839.18 90.856 3831.63 98.408 3814.99 98.408H3812.94C3793.1 98.408 3784.91 87.528 3784.91 75.88V75.368C3784.91 62.952 3792.59 55.528 3816.78 53.48L3836.24 51.816C3840.08 51.432 3841.61 50.024 3841.61 47.208C3841.61 43.88 3840.59 40.296 3826.77 40.296C3813.71 40.296 3812.56 45.288 3812.43 48.104H3786.83V47.848C3786.83 40.808 3789.65 24.296 3824.59 24.296H3828.56C3863.76 24.296 3865.93 38.76 3865.93 48.232V71.656C3865.93 76.136 3866.96 77.928 3871.82 77.928H3874.51V97H3854.29C3846.73 97 3843.53 91.88 3842.38 87.144ZM3889 97V25.96H3913.7V37.224C3916.65 33.384 3926.38 24.296 3942.5 24.296H3943.78C3964.52 24.296 3973.99 38.376 3973.99 50.92V97H3949.03V60.008C3949.03 51.816 3944.3 43.88 3932.01 43.88C3920.1 43.88 3913.96 52.2 3913.96 60.904V97H3889ZM4035.32 98.92C3997.05 98.92 3991.16 75.624 3991.16 62.696V60.904C3991.16 48.232 3997.05 24.04 4035.19 24.04H4039.42C4078.84 24.04 4083.45 48.232 4083.45 60.776V62.824C4083.45 75.624 4078.84 98.92 4039.29 98.92H4035.32ZM4038.01 80.232C4053.75 80.232 4057.72 68.968 4057.72 61.16C4057.72 53.096 4053.75 42.344 4038.01 42.344H4036.6C4020.34 42.344 4016.89 53.096 4016.89 61.16C4016.89 68.968 4020.34 80.232 4036.6 80.232H4038.01Z" fill="#FFB800"/>
</svg>
